<?xml version="1.0" encoding="UTF-8"?>
<svg version="1.1" xmlns="http://www.w3.org/2000/svg" width="1008" height="354">
<path d="M0 0 C3.9581599 2.64442374 6.33961886 5.49283858 7.76171875 10.09375 C8.19739208 17.79928727 7.56683537 25.36949572 6.56835938 33.00292969 C6.37816475 34.52711517 6.37816475 34.52711517 6.18412781 36.08209229 C5.7690814 39.39419616 5.34363115 42.70487026 4.91796875 46.015625 C4.62585789 48.3300982 4.33440506 50.64465454 4.0435791 52.95928955 C3.28074179 59.01642835 2.50903642 65.07240454 1.7354126 71.12817383 C0.94580251 77.32174469 0.16467602 83.51638484 -0.6171875 89.7109375 C-2.14930031 101.83959676 -3.6907937 113.96704349 -5.23828125 126.09375 C-4.58082413 126.09521656 -3.923367 126.09668312 -3.24598694 126.09819412 C12.77140489 126.13528947 28.7885439 126.19434012 44.80575562 126.27765274 C52.5516595 126.31741639 60.29746217 126.34982239 68.04345703 126.36474609 C74.79700738 126.37777656 81.5503348 126.40477654 88.30375957 126.44836307 C91.87777345 126.47094686 95.45151269 126.48666256 99.02560425 126.48563385 C103.02128965 126.48474609 107.01616776 126.51505387 111.01171875 126.54785156 C112.18920181 126.5428212 113.36668488 126.53779083 114.57984924 126.53260803 C121.42517442 126.61947022 125.96072379 127.36419225 131.76171875 131.09375 C135.64731684 135.9756553 136.84245531 139.66620093 137.08984375 145.86328125 C136.22948104 151.71169917 132.42197099 155.98674746 128.63671875 160.28125 C127.643749 161.43031407 126.65157246 162.58006402 125.66015625 163.73046875 C125.16870117 164.29813965 124.67724609 164.86581055 124.17089844 165.45068359 C122.15835614 167.79725491 120.20906686 170.19295802 118.26171875 172.59375 C114.51384077 177.1982858 110.69188431 181.73394191 106.84765625 186.2578125 C103.94927052 189.6743454 101.09016775 193.11879838 98.26171875 196.59375 C94.51384077 201.1982858 90.69188431 205.73394191 86.84765625 210.2578125 C83.94927052 213.6743454 81.09016775 217.11879838 78.26171875 220.59375 C74.51384077 225.1982858 70.69188431 229.73394191 66.84765625 234.2578125 C63.94927052 237.6743454 61.09016775 241.11879838 58.26171875 244.59375 C54.51384077 249.1982858 50.69188431 253.73394191 46.84765625 258.2578125 C43.94927052 261.6743454 41.09016775 265.11879838 38.26171875 268.59375 C34.51384077 273.1982858 30.69188431 277.73394191 26.84765625 282.2578125 C23.94927052 285.6743454 21.09016775 289.11879838 18.26171875 292.59375 C14.51384077 297.1982858 10.69188431 301.73394191 6.84765625 306.2578125 C3.94927052 309.6743454 1.09016775 313.11879838 -1.73828125 316.59375 C-5.48152276 321.19258957 -9.29687562 325.72431124 -13.13916016 330.24023438 C-16.88767943 334.65460037 -20.54509332 339.13798711 -24.16796875 343.65625 C-31.79152994 352.63191449 -31.79152994 352.63191449 -38.0078125 353.46484375 C-43.91936513 353.59385068 -48.32940529 353.58501029 -52.90234375 349.55859375 C-58.24089142 343.70492306 -57.49389284 337.57654122 -57.23828125 330.09375 C-56.95731577 326.43977198 -56.52017212 322.81789886 -56.04492188 319.18457031 C-55.85472725 317.66038483 -55.85472725 317.66038483 -55.66069031 316.10540771 C-55.2456439 312.79330384 -54.82019365 309.48262974 -54.39453125 306.171875 C-54.10242039 303.8574018 -53.81096756 301.54284546 -53.5201416 299.22821045 C-52.75730429 293.17107165 -51.98559892 287.11509546 -51.2119751 281.05932617 C-50.42236501 274.86575531 -49.64123852 268.67111516 -48.859375 262.4765625 C-47.32726219 250.34790324 -45.7857688 238.22045651 -44.23828125 226.09375 C-45.22446693 226.09155016 -45.22446693 226.09155016 -46.23057556 226.08930588 C-62.24796739 226.05221053 -78.2651064 225.99315988 -94.28231812 225.90984726 C-102.028222 225.87008361 -109.77402467 225.83767761 -117.52001953 225.82275391 C-124.27356988 225.80972344 -131.0268973 225.78272346 -137.78032207 225.73913693 C-141.35433595 225.71655314 -144.92807519 225.70083744 -148.50216675 225.70186615 C-152.49785215 225.70275391 -156.49273026 225.67244613 -160.48828125 225.63964844 C-162.25450584 225.64719398 -162.25450584 225.64719398 -164.05641174 225.65489197 C-170.90173692 225.56802978 -175.43728629 224.82330775 -181.23828125 221.09375 C-185.12387934 216.2118447 -186.31901781 212.52129907 -186.56640625 206.32421875 C-185.70604354 200.47580083 -181.89853349 196.20075254 -178.11328125 191.90625 C-177.1203115 190.75718593 -176.12813496 189.60743598 -175.13671875 188.45703125 C-174.64526367 187.88936035 -174.15380859 187.32168945 -173.64746094 186.73681641 C-171.63491864 184.39024509 -169.68562936 181.99454198 -167.73828125 179.59375 C-163.99040327 174.9892142 -160.16844681 170.45355809 -156.32421875 165.9296875 C-153.42583302 162.5131546 -150.56673025 159.06870162 -147.73828125 155.59375 C-143.99040327 150.9892142 -140.16844681 146.45355809 -136.32421875 141.9296875 C-133.42583302 138.5131546 -130.56673025 135.06870162 -127.73828125 131.59375 C-123.99040327 126.9892142 -120.16844681 122.45355809 -116.32421875 117.9296875 C-113.42583302 114.5131546 -110.56673025 111.06870162 -107.73828125 107.59375 C-104.45004257 103.5539139 -101.11091644 99.56296119 -97.73828125 95.59375 C-92.83352415 89.81779233 -88.00618087 83.98350835 -83.23828125 78.09375 C-82.53703125 77.2275 -81.83578125 76.36125 -81.11328125 75.46875 C-78.05348208 71.66718133 -75.04527849 67.85370652 -72.17578125 63.90625 C-70.25211969 61.31034112 -68.24681049 59.02775078 -65.92578125 56.78125 C-62.17937344 53.1496118 -58.96162542 49.17715347 -55.69140625 45.1171875 C-53.08408026 41.90369974 -50.42043641 38.74467655 -47.73828125 35.59375 C-44.36512814 31.62499176 -41.02650682 27.63356998 -37.73828125 23.59375 C-34.35325172 19.44160946 -30.93735558 15.31771721 -27.48828125 11.21875 C-27.04033203 10.68314453 -26.59238281 10.14753906 -26.13085938 9.59570312 C-19.00931919 1.16202181 -11.55038954 -4.67659751 0 0 Z " fill="#000000" transform="translate(186.23828125,0.90625)"/>
<path d="M0 0 C1.87522339 -0.0151062 1.87522339 -0.0151062 3.78833008 -0.03051758 C24.42179467 0.16044524 43.33921389 6.75923971 58.48828125 20.95703125 C73.77967946 36.84907358 79.05618605 57.26001405 79.11523438 78.79296875 C79.12484773 80.90406121 79.15587662 83.01413915 79.1875 85.125 C79.34748893 105.56598241 73.4814279 125.37765218 59.59765625 140.81640625 C47.82411732 151.89581363 33.51453187 157.04551132 17.5 156.875 C15.99445557 156.86364014 15.99445557 156.86364014 14.45849609 156.85205078 C3.03629829 156.59912673 -7.33328235 154.20094658 -16.125 146.4375 C-23.39787375 138.66208603 -25.34270715 131.85434693 -26.125 121.4375 C-26.785 121.4375 -27.445 121.4375 -28.125 121.4375 C-28.125 156.7475 -28.125 192.0575 -28.125 228.4375 C-44.955 228.4375 -61.785 228.4375 -79.125 228.4375 C-79.2155206 207.33088235 -79.28910974 186.22442344 -79.33224869 165.11766052 C-79.35281701 155.31599953 -79.3808272 145.5144683 -79.42675781 135.71289062 C-79.46680193 127.16336632 -79.49247438 118.61393605 -79.50135398 110.06432056 C-79.50653916 105.54319926 -79.51860471 101.02234683 -79.54792023 96.50131226 C-79.57536811 92.23312939 -79.58338669 87.96532238 -79.57743073 83.69705963 C-79.578518 82.14280392 -79.58629518 80.5885337 -79.6018219 79.03435516 C-79.80878218 57.22108958 -73.63693959 37.18033496 -58.3125 21.125 C-41.95978869 5.52241306 -22.01952493 0.11487508 0 0 Z M-21.6171875 58.41796875 C-27.90642832 66.84164104 -28.1187364 76.34646538 -27.125 86.4375 C-25.32872123 94.61109987 -21.0435885 100.13557904 -14.1640625 104.75390625 C-6.93484817 108.61038304 1.76548164 108.80834639 9.59765625 106.70703125 C14.28062453 104.79162686 17.56499277 102.31493704 20.875 98.4375 C21.57625 97.73625 22.2775 97.035 23 96.3125 C27.76503842 89.00610775 28.89828381 80.23610827 27.40625 71.78125 C25.55487717 63.75863439 22.34504115 58.18461591 15.875 53.0625 C3.26804365 46.23373198 -11.86650451 47.64686544 -21.6171875 58.41796875 Z " fill="#000000" transform="translate(793.125,106.5625)"/>
<path d="M0 0 C1.20973879 0.9943787 2.39687759 2.01675561 3.5625 3.0625 C4.28566406 3.69414063 5.00882813 4.32578125 5.75390625 4.9765625 C18.53737335 16.87319009 26.39292065 33.96689754 27.74304581 51.3927803 C27.80504203 53.72014908 27.81057424 56.03959243 27.78955078 58.36767578 C27.78984283 59.23720383 27.79013489 60.10673187 27.79043579 61.00260925 C27.7890576 63.83778342 27.77356861 66.67268502 27.7578125 69.5078125 C27.75407698 71.48892066 27.75123256 73.47003068 27.74923706 75.45114136 C27.74164301 80.63620203 27.72203131 85.8211486 27.6998291 91.00616455 C27.67565866 97.24297732 27.66656954 103.47982849 27.65492249 109.7166748 C27.6356041 119.16536228 27.59725206 128.61379996 27.5625 138.0625 C10.7325 138.0625 -6.0975 138.0625 -23.4375 138.0625 C-23.4375 127.5025 -23.4375 116.9425 -23.4375 106.0625 C-24.0975 106.0625 -24.7575 106.0625 -25.4375 106.0625 C-25.355 106.990625 -25.2725 107.91875 -25.1875 108.875 C-25.25688301 117.46114716 -29.18777794 124.96407494 -35.02734375 131.0546875 C-48.16918273 142.00267005 -64.21344762 142.19014917 -80.4375 141.0625 C-85.05450194 140.42440272 -89.20317902 139.00197561 -93.4375 137.0625 C-94.87416016 136.40894531 -94.87416016 136.40894531 -96.33984375 135.7421875 C-112.73857216 127.50908106 -121.11920495 113.81455634 -127.24609375 97.14453125 C-130.39033062 87.04272702 -130.84150788 76.94357251 -130.8125 66.4375 C-130.81228851 65.7307312 -130.81207703 65.0239624 -130.81185913 64.29577637 C-130.77935516 53.41203081 -130.06314578 43.41810265 -126.4375 33.0625 C-126.06367187 31.97710937 -125.68984375 30.89171875 -125.3046875 29.7734375 C-118.36759233 11.6267316 -106.31290384 -0.37106739 -88.9375 -8.6875 C-60.76207457 -20.94119003 -25.03473841 -17.79697246 0 0 Z M-72.9296875 43.04296875 C-79.21892832 51.46664104 -79.4312364 60.97146538 -78.4375 71.0625 C-76.64122123 79.23609987 -72.3560885 84.76057904 -65.4765625 89.37890625 C-58.24077138 93.23889148 -49.64736079 93.35921056 -41.78515625 91.40234375 C-34.59502973 88.56316559 -29.34242373 83.57864378 -26 76.625 C-23.04524896 68.24680981 -23.04524896 57.87819019 -26 49.5 C-29.34242373 42.54635622 -34.59502973 37.56183441 -41.78515625 34.72265625 C-53.56673049 31.79027621 -64.70974326 33.96279778 -72.9296875 43.04296875 Z " fill="#000000" transform="translate(672.4375,121.9375)"/>
<path d="M0 0 C40.92 0 81.84 0 124 0 C124 45 124 45 116.37109375 56.98828125 C113.09351442 59.95813156 109.9181323 62.63190648 106.4375 65.3125 C104.75211585 66.76225258 103.07689902 68.22390969 101.41210938 69.69726562 C97.76262036 72.90608109 94.04216549 75.9879276 90.20848083 78.97407532 C86.86462676 82.04152168 83.98808663 85.58504385 81 89 C75.72 94.28 70.44 99.56 65 105 C85.46 105.33 105.92 105.66 127 106 C127 120.52 127 135.04 127 150 C86.08 150 45.16 150 3 150 C3 105 3 105 16.0625 89.1875 C23.41015625 83.10546875 23.41015625 83.10546875 26.94165039 80.41552734 C30.11930625 77.90577025 32.5747823 75.32434676 35.11938477 72.2043457 C37.65158403 69.23625182 40.39123258 66.50425276 43.15234375 63.75 C43.64134155 63.26159134 44.13033936 62.77318268 44.63415527 62.26997375 C46.39969273 60.51106039 48.16879813 58.75573131 49.9375 57 C55.9084375 51.06 55.9084375 51.06 62 45 C41.54 44.67 21.08 44.34 0 44 C0 29.48 0 14.96 0 0 Z " fill="#000000" transform="translate(406,110)"/>
<path d="M0 0 C16.83 0 33.66 0 51 0 C51 74.58 51 149.16 51 226 C34.17 226 17.34 226 0 226 C0 151.42 0 76.84 0 0 Z " fill="#000000" transform="translate(886,34)"/>
<path d="M0 0 C16.83 0 33.66 0 51 0 C51 49.5 51 99 51 150 C34.17 150 17.34 150 0 150 C0 100.5 0 51 0 0 Z " fill="#000000" transform="translate(954,110)"/>
<path d="M0 0 C6.26258154 3.68387149 9.90914043 8.7274213 12.1875 15.5625 C12.95570195 24.61630871 13.16977199 33.1710092 7.1875 40.5625 C4.37994339 42.99436187 1.49710708 44.88502792 -1.8125 46.5625 C-2.54339844 46.93375 -3.27429688 47.305 -4.02734375 47.6875 C-12.8106378 50.44690795 -24.30050125 49.90030659 -32.625 46.125 C-38.88758154 42.44112851 -42.53414043 37.3975787 -44.8125 30.5625 C-45.58070195 21.50869129 -45.79477199 12.9539908 -39.8125 5.5625 C-37.00494339 3.13063813 -34.12210708 1.23997208 -30.8125 -0.4375 C-30.08160156 -0.80875 -29.35070312 -1.18 -28.59765625 -1.5625 C-19.8143622 -4.32190795 -8.32449875 -3.77530659 0 0 Z " fill="#000000" transform="translate(995.8125,49.4375)"/>
</svg>
